<?xml version="1.0" encoding="utf-8"?>
<!-- Generator: Adobe Illustrator 21.0.0, SVG Export Plug-In . SVG Version: 6.00 Build 0)  -->
<svg version="1.1" id="Layer_1" xmlns="http://www.w3.org/2000/svg" xmlns:xlink="http://www.w3.org/1999/xlink" x="0px" y="0px"
	 viewBox="0 0 584 110" style="enable-background:new 0 0 584 110;" xml:space="preserve"
	 width="250px" height="150px">
<style type="text/css">
	.st0{fill:#FFFFFF;}
	.st1{font-family:'HarlowSolid';}
	.st2{font-size:100px;}
	.st3{fill:none;stroke:#000000;stroke-width:4;stroke-miterlimit:10;}

	.st3 {
		stroke-dasharray:800;
		stroke-dashoffset:0;
		-webkit-animation: dash 2s linear forwards infinite;
		-o-animation: dash 2s linear forwards infinite;
		-moz-animation: dash 2s linear forwards infinite;
		animation: dash 2s linear forwards infinite;
	}
	@-webkit-keyframes dash{
		from{
			stroke-dashoffset:800;
		}
		to{
			stroke-dahsoffset: 0;
		}
	}
</style>
<path class="st3" d="M27.743,35.746c3.418-1.855,6.233-2.783,8.447-2.783c3.125,0,5.688,0.871,7.69,2.612
	c2.002,1.742,3.003,3.964,3.003,6.665c0,1.628-0.391,3.402-1.172,5.322l-5.127,12.793H46.2c4.102,0,6.152,1.449,6.152,4.346
	c0,1.986-0.725,3.532-2.173,4.639C48.73,70.447,46.704,71,44.1,71h-9.814c-2.083,0-3.833-0.594-5.249-1.782
	c-1.416-1.188-2.124-2.645-2.124-4.37c0-1.172,0.374-2.669,1.123-4.492l4.492-11.035c0.553-1.399,0.83-2.457,0.83-3.174
	c0-1.855-1.237-2.783-3.711-2.783c-3.32,0-6.12,2.832-8.398,8.496L15.78,65.287c-1.726,4.265-4.281,6.396-7.666,6.396
	c-1.335,0-2.474-0.424-3.418-1.27c-0.944-0.846-1.416-1.871-1.416-3.076c0-0.911,0.244-1.985,0.732-3.223l0.537-1.318l21.24-52.393
	c1.855-4.492,4.395-6.738,7.617-6.738c1.334,0,2.482,0.448,3.442,1.343c0.96,0.896,1.44,1.978,1.44,3.247
	c0,1.042-0.423,2.588-1.27,4.639L27.743,35.746z"/>
<path class="st3" d="M67.782,60.355h5.518c4.102,0,6.152,1.449,6.152,4.346c0,1.986-0.725,3.532-2.173,4.639
	C75.83,70.447,73.804,71,71.2,71h-7.764c-2.865,0-5.119-0.586-6.763-1.758c-1.644-1.172-2.466-2.767-2.466-4.785
	c0-1.074,0.342-2.441,1.025-4.102l8.057-19.824l0.537-1.367c1.497-3.678,3.906-5.518,7.227-5.518c1.367,0,2.547,0.456,3.54,1.367
	c0.993,0.912,1.489,2.002,1.489,3.271c0,1.042-0.439,2.637-1.318,4.785L67.782,60.355z M74.227,18.07
	c1.888,0,3.491,0.659,4.81,1.978s1.978,2.922,1.978,4.81c0,1.889-0.659,3.491-1.978,4.81s-2.922,1.978-4.81,1.978
	c-1.888,0-3.491-0.659-4.81-1.978s-1.978-2.921-1.978-4.81c0-1.888,0.659-3.491,1.978-4.81S72.339,18.07,74.227,18.07z"/>
<path class="st3" d="M114.852,60.355h5.566c4.134,0,6.201,1.449,6.201,4.346c0,1.986-0.732,3.532-2.197,4.639
	c-1.465,1.107-3.483,1.66-6.055,1.66h-6.592c-2.539,0-4.395-1.041-5.566-3.125C104.126,69.959,101.896,71,99.52,71h-6.201
	c-3.613,0-6.502-1.236-8.667-3.711c-2.165-2.474-3.247-5.762-3.247-9.863c0-6.282,2.14-11.93,6.421-16.943
	c4.28-5.013,9.09-7.52,14.429-7.52c3.938,0,7.08,1.416,9.424,4.248l10.889-26.709c1.855-4.557,4.443-6.836,7.764-6.836
	c1.399,0,2.588,0.448,3.564,1.343c0.977,0.896,1.465,1.994,1.465,3.296c0,1.01-0.244,2.148-0.732,3.418l-0.586,1.318L114.852,60.355
	z M96.981,60.6h1.855c2.246,0,3.727-0.895,4.443-2.686l3.662-9.033c0.456-1.106,0.684-1.953,0.684-2.539
	c0-0.977-0.415-1.807-1.245-2.49s-1.864-1.025-3.101-1.025c-2.539,0-4.907,1.416-7.104,4.248s-3.296,5.893-3.296,9.18
	C92.879,59.151,94.247,60.6,96.981,60.6z"/>
<path class="st3" d="M161.922,60.355h5.371c4.102,0,6.152,1.433,6.152,4.297c0,1.986-0.732,3.54-2.197,4.663S167.765,71,165.194,71
	h-6.25c-2.8,0-4.704-1.09-5.713-3.271C150.79,69.91,148.429,71,146.151,71h-5.566c-3.581,0-6.47-1.277-8.667-3.833
	c-2.197-2.555-3.296-5.899-3.296-10.034c0-6.25,2.156-11.841,6.47-16.772c4.313-4.932,9.188-7.397,14.624-7.397
	c4.167,0,7.21,1.449,9.131,4.346c1.627-2.441,3.76-3.662,6.396-3.662c1.432,0,2.628,0.456,3.589,1.367
	c0.96,0.912,1.44,2.035,1.44,3.369c0,0.912-0.261,2.002-0.781,3.271l-0.537,1.318L161.922,60.355z M144.198,60.6h1.221
	c2.669,0,4.443-1.09,5.322-3.271l3.418-8.447c0.456-1.106,0.684-2.034,0.684-2.783c0-0.879-0.432-1.644-1.294-2.295
	c-0.863-0.65-1.896-0.977-3.101-0.977c-2.376,0-4.688,1.384-6.934,4.15c-2.246,2.768-3.369,5.632-3.369,8.594
	C140.145,58.924,141.496,60.6,144.198,60.6z"/>
<path class="st3" d="M203.182,73.002h5.664c4.134,0,6.201,1.448,6.201,4.346c0,1.985-0.725,3.531-2.173,4.639
	c-1.449,1.106-3.475,1.66-6.079,1.66h-7.91c-0.944,2.799-2.653,6.51-5.127,11.133c-4.297,8.138-10.547,12.207-18.75,12.207
	c-4.98,0-9.163-1.563-12.549-4.688c-3.385-3.125-5.078-6.999-5.078-11.621c0-3.223,0.92-6.226,2.759-9.009
	c1.839-2.783,4.256-4.875,7.251-6.274c3.45-1.596,8.545-2.393,15.283-2.393h7.959l1.416-3.516c-2.409,1.01-4.623,1.514-6.641,1.514
	c-3.483,0-6.307-0.887-8.472-2.661c-2.165-1.773-3.247-4.077-3.247-6.909c0-1.725,0.7-4.313,2.1-7.764l5.322-13.135l0.537-1.367
	c1.563-3.678,3.987-5.518,7.275-5.518c1.432,0,2.628,0.456,3.589,1.367c0.96,0.912,1.44,2.067,1.44,3.467
	c0,0.944-0.423,2.475-1.27,4.59l-4.785,11.67c-0.749,1.889-1.14,3.109-1.172,3.662c-0.098,1.596,0.911,2.393,3.027,2.393
	c1.497,0,3.027-0.439,4.59-1.318s2.555-1.871,2.979-2.979l6.543-15.967l0.488-1.367c1.53-3.678,3.955-5.518,7.275-5.518
	c1.432,0,2.628,0.464,3.589,1.392c0.96,0.928,1.44,2.075,1.44,3.442c0,0.944-0.244,2.035-0.732,3.271l-0.586,1.318L203.182,73.002z
	 M187.215,83.646h-6.836c-7.487,0-11.23,2.344-11.23,7.031c0,1.66,0.513,2.994,1.538,4.004c1.025,1.009,2.4,1.514,4.126,1.514
	c2.376,0,4.484-0.928,6.323-2.783C182.975,91.557,185.001,88.301,187.215,83.646z"/>
<path class="st3" d="M251.522,60.355h5.371c4.102,0,6.152,1.433,6.152,4.297c0,1.986-0.732,3.54-2.197,4.663S257.365,71,254.793,71
	h-6.25c-2.8,0-4.704-1.09-5.713-3.271C240.389,69.91,238.029,71,235.75,71h-5.566c-3.581,0-6.47-1.277-8.667-3.833
	c-2.197-2.555-3.296-5.899-3.296-10.034c0-6.25,2.156-11.841,6.47-16.772c4.313-4.932,9.188-7.397,14.624-7.397
	c4.167,0,7.21,1.449,9.131,4.346c1.627-2.441,3.76-3.662,6.396-3.662c1.432,0,2.628,0.456,3.589,1.367
	c0.96,0.912,1.44,2.035,1.44,3.369c0,0.912-0.261,2.002-0.781,3.271l-0.537,1.318L251.522,60.355z M233.797,60.6h1.221
	c2.669,0,4.443-1.09,5.322-3.271l3.418-8.447c0.456-1.106,0.684-2.034,0.684-2.783c0-0.879-0.432-1.644-1.294-2.295
	c-0.863-0.65-1.896-0.977-3.101-0.977c-2.376,0-4.688,1.384-6.934,4.15c-2.246,2.768-3.369,5.632-3.369,8.594
	C229.745,58.924,231.095,60.6,233.797,60.6z"/>
<path class="st3" d="M289.315,33.646h1.514c4.134,0,6.201,1.449,6.201,4.346c0,1.986-0.732,3.532-2.197,4.639
	c-1.465,1.107-3.483,1.66-6.054,1.66h-3.564l-6.543,16.064h5.469c4.134,0,6.201,1.449,6.201,4.346c0,1.986-0.725,3.532-2.173,4.639
	c-1.449,1.107-3.475,1.66-6.079,1.66h-8.74c-2.474,0-4.436-0.569-5.884-1.709c-1.449-1.139-2.173-2.686-2.173-4.639
	c0-1.204,0.293-2.539,0.879-4.004l0.928-2.148l5.762-14.209h-0.732c-3.646,0-5.469-1.416-5.469-4.248
	c0-2.018,0.724-3.589,2.173-4.712c1.448-1.123,3.475-1.685,6.079-1.685h2.246l2.588-6.396l0.537-1.318
	c1.53-3.613,3.938-5.42,7.227-5.42c1.334,0,2.482,0.448,3.442,1.343c0.96,0.896,1.44,1.978,1.44,3.247c0,1.237-0.423,2.8-1.27,4.688
	L289.315,33.646z"/>
<path class="st3" d="M329.402,60.355h5.664c2.246,0,3.842,0.334,4.785,1.001c0.944,0.668,1.416,1.767,1.416,3.296
	c0,1.986-0.725,3.54-2.172,4.663c-1.449,1.123-3.476,1.685-6.08,1.685h-8.74c-2.734,0-4.557-1.058-5.469-3.174
	c-1.79,2.116-4.036,3.174-6.738,3.174h-7.129c-2.864,0-5.24-0.895-7.129-2.686c-1.888-1.79-2.832-4.053-2.832-6.787
	c0-1.563,0.424-3.385,1.27-5.469l6.641-16.309c1.855-4.524,4.395-6.787,7.617-6.787c1.4,0,2.588,0.448,3.564,1.343
	c0.977,0.896,1.465,1.994,1.465,3.296c0,0.977-0.26,2.1-0.781,3.369l-0.537,1.318l-5.127,12.549l-0.537,1.465
	c-0.293,0.847-0.455,1.481-0.488,1.904c-0.064,1.465,0.879,2.197,2.832,2.197c4.037,0,6.723-1.627,8.057-4.883l6.104-15.039
	c1.823-4.557,4.395-6.836,7.715-6.836c1.367,0,2.539,0.456,3.516,1.367c0.977,0.912,1.465,2.002,1.465,3.271
	c0,1.01-0.423,2.572-1.27,4.688L329.402,60.355z"/>
<path class="st3" d="M356.16,60.355h5.127c4.135,0,6.201,1.449,6.201,4.346c0,1.986-0.725,3.532-2.172,4.639
	c-1.449,1.107-3.476,1.66-6.08,1.66h-8.789c-2.408,0-4.313-0.569-5.713-1.709c-1.399-1.139-2.1-2.669-2.1-4.59
	c0-1.009,0.473-2.686,1.416-5.029l19.727-48.535l0.537-1.318c1.498-3.646,3.891-5.469,7.178-5.469c1.367,0,2.531,0.456,3.492,1.367
	c0.959,0.912,1.439,2.002,1.439,3.271c0,0.977-0.244,2.084-0.732,3.32l-0.537,1.318L356.16,60.355z"/>
<path class="st3" d="M382.723,60.355h5.127c4.135,0,6.201,1.449,6.201,4.346c0,1.986-0.725,3.532-2.172,4.639
	c-1.449,1.107-3.476,1.66-6.08,1.66h-8.789c-2.408,0-4.313-0.569-5.713-1.709c-1.399-1.139-2.1-2.669-2.1-4.59
	c0-1.009,0.473-2.686,1.416-5.029l19.727-48.535l0.537-1.318c1.498-3.646,3.891-5.469,7.178-5.469c1.367,0,2.531,0.456,3.492,1.367
	c0.959,0.912,1.439,2.002,1.439,3.271c0,0.977-0.244,2.084-0.732,3.32l-0.537,1.318L382.723,60.355z"/>
<path class="st3" d="M429.549,60.355h5.371c4.102,0,6.152,1.433,6.152,4.297c0,1.986-0.732,3.54-2.197,4.663S435.393,71,432.82,71
	h-6.25c-2.799,0-4.703-1.09-5.713-3.271c-2.441,2.182-4.801,3.271-7.08,3.271h-5.566c-3.58,0-6.469-1.277-8.666-3.833
	c-2.197-2.555-3.297-5.899-3.297-10.034c0-6.25,2.156-11.841,6.471-16.772c4.313-4.932,9.188-7.397,14.623-7.397
	c4.167,0,7.211,1.449,9.131,4.346c1.628-2.441,3.76-3.662,6.396-3.662c1.433,0,2.629,0.456,3.59,1.367
	c0.959,0.912,1.439,2.035,1.439,3.369c0,0.912-0.26,2.002-0.781,3.271l-0.537,1.318L429.549,60.355z M411.824,60.6h1.221
	c2.67,0,4.443-1.09,5.322-3.271l3.418-8.447c0.456-1.106,0.684-2.034,0.684-2.783c0-0.879-0.432-1.644-1.293-2.295
	c-0.863-0.65-1.896-0.977-3.102-0.977c-2.376,0-4.688,1.384-6.934,4.15c-2.246,2.768-3.369,5.632-3.369,8.594
	C407.771,58.924,409.123,60.6,411.824,60.6z"/>
<path class="st3" d="M466.414,35.746c3.418-1.855,6.234-2.783,8.447-2.783c3.125,0,5.689,0.871,7.691,2.612
	c2.002,1.742,3.002,3.964,3.002,6.665c0,1.628-0.391,3.402-1.172,5.322l-5.127,12.793h5.615c4.102,0,6.152,1.449,6.152,4.346
	c0,1.986-0.725,3.532-2.172,4.639c-1.449,1.107-3.476,1.66-6.08,1.66h-9.814c-2.083,0-3.832-0.594-5.248-1.782
	c-1.416-1.188-2.125-2.645-2.125-4.37c0-1.172,0.375-2.669,1.123-4.492l4.492-11.035c0.554-1.399,0.83-2.457,0.83-3.174
	c0-1.855-1.236-2.783-3.711-2.783c-3.32,0-6.119,2.832-8.398,8.496l-5.469,13.428c-1.725,4.265-4.28,6.396-7.666,6.396
	c-1.334,0-2.474-0.424-3.418-1.27c-0.943-0.846-1.416-1.871-1.416-3.076c0-0.911,0.244-1.985,0.732-3.223l0.537-1.318l21.24-52.393
	c1.855-4.492,4.395-6.738,7.617-6.738c1.335,0,2.482,0.448,3.443,1.343c0.959,0.896,1.439,1.978,1.439,3.247
	c0,1.042-0.423,2.588-1.27,4.639L466.414,35.746z"/>
<path class="st3" d="M526.229,60.355h5.371c4.102,0,6.152,1.433,6.152,4.297c0,1.986-0.732,3.54-2.197,4.663S532.072,71,529.5,71
	h-6.25c-2.799,0-4.703-1.09-5.713-3.271c-2.441,2.182-4.801,3.271-7.08,3.271h-5.566c-3.58,0-6.469-1.277-8.666-3.833
	c-2.197-2.555-3.297-5.899-3.297-10.034c0-6.25,2.156-11.841,6.471-16.772c4.313-4.932,9.188-7.397,14.623-7.397
	c4.166,0,7.211,1.449,9.131,4.346c1.627-2.441,3.76-3.662,6.396-3.662c1.432,0,2.629,0.456,3.59,1.367
	c0.959,0.912,1.439,2.035,1.439,3.369c0,0.912-0.26,2.002-0.781,3.271l-0.537,1.318L526.229,60.355z M508.504,60.6h1.221
	c2.67,0,4.443-1.09,5.322-3.271l3.418-8.447c0.455-1.106,0.684-2.034,0.684-2.783c0-0.879-0.432-1.644-1.293-2.295
	c-0.863-0.65-1.896-0.977-3.102-0.977c-2.377,0-4.688,1.384-6.934,4.15c-2.246,2.768-3.369,5.632-3.369,8.594
	C504.451,58.924,505.803,60.6,508.504,60.6z"/>
<path class="st3" d="M550.203,67.191l-12.744,31.348c-1.758,4.329-4.328,6.494-7.715,6.494c-1.301,0-2.416-0.432-3.344-1.294
	c-0.928-0.863-1.393-1.896-1.393-3.101c0-1.01,0.408-2.539,1.221-4.59l23.535-58.008c1.205-2.93,3.287-4.395,6.25-4.395
	c2.051,0,3.678,0.977,4.883,2.93c2.279-2.408,5.063-3.613,8.35-3.613c3.418,0,6.178,1.294,8.277,3.882s3.148,5.998,3.148,10.229
	c0,8.008-2.49,14.535-7.471,19.58c-1.627,1.66-3.305,2.8-5.029,3.418c-1.725,0.619-4.135,0.928-7.227,0.928
	c-3.32,0-5.607-0.228-6.859-0.684C552.832,69.861,551.537,68.819,550.203,67.191z M554.207,57.23c0.814,1.433,1.588,2.36,2.32,2.783
	c0.732,0.424,1.895,0.635,3.49,0.635c2.311,0,4.117-0.862,5.42-2.588c2.637-3.482,3.955-7.063,3.955-10.742
	c0-3.157-1.498-4.736-4.492-4.736c-3.287,0-5.648,1.904-7.08,5.713c-0.162,0.424-0.293,0.781-0.391,1.074L554.207,57.23z"/>
</svg>
